<?xml version="1.0" encoding="UTF-8"?>
<svg width="137px" height="123px" viewBox="0 0 137 123" version="1.1" xmlns="http://www.w3.org/2000/svg" xmlns:xlink="http://www.w3.org/1999/xlink">
    <title>alert_icon</title>
    <g id="Page-1" stroke="none" stroke-width="1" fill="none" fill-rule="evenodd">
        <g id="alert_icon">
            <path d="M132.945058,71.263847 C118.826058,48.904847 120.714058,26.232847 113.909058,15.463847 C107.104058,4.69484697 86.6160576,-14.034153 37.0450576,17.266847 C-12.5259424,48.567847 -0.573942404,83.600847 6.9120576,95.452847 C41.9560576,150.945847 157.945058,110.864847 132.945058,71.263847 Z" id="Path" fill="#002035" fill-rule="nonzero" opacity="0.022"></path>
            <g id="Group" transform="translate(26.989462, 20.287292)">
                <g>
                    <path d="M34.8925958,4.10055542 C36.306411,1.57064312 38.9779361,0.00321191903 41.8760958,0.00321191903 C44.7742555,0.00321191903 47.4457806,1.57064312 48.8595958,4.10055542 L82.7255958,64.7005554 C84.1088365,67.1779692 84.0763186,70.2027192 82.6401363,72.6498225 C81.203954,75.0969258 78.5790126,76.6005554 75.7415958,76.6005554 L8.01159579,76.6005554 C5.174179,76.6005554 2.5492376,75.0969258 1.1130553,72.6498225 C-0.323127006,70.2027192 -0.355644929,67.1779692 1.02759579,64.7005554 L34.8925958,4.10055542 Z" id="Path"></path>
                    <path d="M41.876592,4.00000763 C41.1709455,4.00000763 39.4181302,4.19963837 38.3848241,6.04872894 L4.51979189,66.6492538 C3.51120882,68.4541168 4.21300631,70.0307007 4.56156283,70.6247559 C4.91011172,71.2188187 5.94403963,72.6005554 8.01157504,72.6005554 L75.7416089,72.6005554 C77.8091596,72.6005554 78.8430722,71.2188339 79.1916211,70.6247711 C79.5401776,70.0307007 80.2419751,68.4541168 79.2333921,66.6492691 L45.3683599,6.04871368 C44.335069,4.19963837 42.5822385,4.00000763 41.876592,4.00000763 M41.8765996,0 C44.6051267,0 47.3336537,1.36581421 48.8601468,4.097435 L82.7251599,64.6979752 C85.7051175,70.0305252 81.8503125,76.6005554 75.7416089,76.6005554 L8.01157504,76.6005554 C1.90288668,76.6005554 -1.95193357,70.0305252 1.02802401,64.6979752 L34.8930524,4.097435 C36.4195455,1.36581421 39.1480725,0 41.8765996,0 Z" id="Shape" fill="#002035" fill-rule="nonzero"></path>
                </g>
                <g id="Path" transform="translate(37.251528, 23.449895)" fill="#002035" fill-rule="nonzero">
                    <g id="Group">
                        <path d="M5.01706793,32.3566606 C6.57202495,32.3566606 7.86762202,31.1651364 7.99806793,29.6156606 L10.0200679,5.46766059 C10.1895612,3.57456003 9.27535713,1.74807831 7.65833743,0.74917642 C6.04131773,-0.249725473 3.99881814,-0.249725473 2.38179843,0.74917642 C0.764778732,1.74807831 -0.149425368,3.57456003 0.0200679327,5.46766059 L2.04206793,29.6146606 C2.17182768,31.1622392 3.46406256,32.3532671 5.01706793,32.3566606 Z" id="Path"></path>
                        <path d="M5.01706793,34.1336606 C3.21772422,34.1336606 1.75906793,35.5923169 1.75906793,37.3916606 C1.75906793,39.1910043 3.21772422,40.6496606 5.01706793,40.6496606 C6.81641165,40.6496606 8.27506793,39.1910043 8.27506793,37.3916606 C8.27506793,35.5923169 6.81641165,34.1336606 5.01706793,34.1336606 L5.01706793,34.1336606 Z" id="Path"></path>
                    </g>
                </g>
            </g>
        </g>
    </g>
</svg>