<?xml version="1.0" encoding="UTF-8"?>
<svg width="137px" height="123px" viewBox="0 0 137 123" version="1.1" xmlns="http://www.w3.org/2000/svg" xmlns:xlink="http://www.w3.org/1999/xlink">
    <title>app_error_alert_dark</title>
    <g id="Page-1" stroke="none" stroke-width="1" fill="none" fill-rule="evenodd">
        <g id="app_error_alert_dark">
            <path d="M132.943,71.268 C118.824,48.909 120.712,26.237 113.907,15.468 C107.102,4.699 86.614,-14.03 37.043,17.271 C-12.528,48.572 -0.576,83.605 6.91,95.457 C41.954,150.95 157.943,110.869 132.943,71.268 Z" id="Path" fill="#FFFFFF" fill-rule="nonzero" opacity="0.1"></path>
            <g id="Group" transform="translate(26.283000, 19.305000)">
                <g transform="translate(0.081000, 0.587000)">
                    <path d="M35.516,4.5 C36.9298152,1.9700877 39.6013403,0.402656499 42.4995,0.402656499 C45.3976597,0.402656499 48.0691848,1.9700877 49.483,4.5 L83.349,65.1 C84.7322407,67.5774138 84.6997228,70.6021638 83.2635405,73.0492671 C81.8273582,75.4963704 79.2024168,77 76.365,77 L8.635,77 C5.79758321,77 3.17264181,75.4963704 1.73645951,73.0492671 C0.300277207,70.6021638 0.267759284,67.5774138 1.651,65.1 L35.516,4.5 Z" id="Path"></path>
                    <path d="M42.4999962,4.39945221 C41.7943497,4.39945221 40.0415192,4.59908295 39.008213,6.44817352 L5.14319611,67.0486984 C4.13461304,68.8535614 4.83641052,70.4301453 5.18496704,71.0242004 C5.53351593,71.6182632 6.56744385,73 8.63497925,73 L76.3650131,73 C78.4325638,73 79.4664764,71.6182785 79.8150253,71.0242157 C80.1635818,70.4301453 80.8653793,68.8535614 79.8567963,67.0487137 L45.9917793,6.44817352 C44.9584579,4.59908295 43.2056427,4.39945221 42.4999962,4.39945221 M42.4999962,0.39944458 C45.2285233,0.39944458 47.9570503,1.76525879 49.483551,4.49687958 L83.3485641,65.0974197 C86.3285217,70.4299698 82.4737167,77 76.3650131,77 L8.63497925,77 C2.52629089,77 -1.32852936,70.4299698 1.65142822,65.0974197 L35.5164413,4.49687958 C37.042942,1.76525879 39.7714691,0.39944458 42.4999962,0.39944458 Z" id="Shape" fill="#FFFFFF" fill-rule="nonzero"></path>
                </g>
                <g id="Path" transform="translate(37.953000, 23.464000)" fill="#FFFFFF" fill-rule="nonzero">
                    <g id="Group">
                        <path d="M5.02,33.329 C6.57495702,33.329 7.87055409,32.1374758 8.001,30.588 L10.023,6.44 C10.1924933,4.54689944 9.2782892,2.72041773 7.6612695,1.72151583 C6.0442498,0.722613941 4.0017502,0.722613941 2.3847305,1.72151583 C0.767710799,2.72041773 -0.146493301,4.54689944 0.023,6.44 L2.045,30.587 C2.17475975,32.1345786 3.46699463,33.3256065 5.02,33.329 Z" id="Path"></path>
                        <path d="M5.02,35.106 C3.22065629,35.106 1.762,36.5646563 1.762,38.364 C1.762,40.1633437 3.22065629,41.622 5.02,41.622 C6.81934371,41.622 8.278,40.1633437 8.278,38.364 C8.278,36.5646563 6.81934371,35.106 5.02,35.106 L5.02,35.106 Z" id="Path"></path>
                    </g>
                </g>
            </g>
        </g>
    </g>
</svg>